<svg xmlns="http://www.w3.org/2000/svg" viewBox="0 0 44 44"><title>newspaper-2@1x</title><g id="Layer_2" data-name="Layer 2"><g id="General"><g id="Newspapers_2x.png" data-name="Newspapers@2x.png"><path d="M37,20H29a1,1,0,0,0,0,2h8a1,1,0,0,0,0-2Zm0,8H29a1,1,0,1,0,0,2h8a1,1,0,1,0,0-2ZM33,16a1,1,0,1,0-1-1A1,1,0,0,0,33,16ZM13,2H39a1,1,0,0,0,0-2H13a1,1,0,0,0,0,2ZM37,24H29a1,1,0,1,0,0,2h8a1,1,0,1,0,0-2ZM10,6H41a1,1,0,0,0,0-2H10a1,1,0,0,0,0,2ZM37,16a1,1,0,1,0-1-1A1,1,0,0,0,37,16ZM13,38H37a1,1,0,0,0,0-2H13a1,1,0,0,0,0,2ZM42,8H8a2,2,0,0,0-2,2v4H2a2,2,0,0,0-2,2V38a6,6,0,0,0,6,6H42a2,2,0,0,0,2-2V10A2,2,0,0,0,42,8Zm0,34H6a4,4,0,0,1-4-4V16H6V37a1,1,0,0,0,2,0V10H42ZM13,34H37a1,1,0,1,0,0-2H13a1,1,0,1,0,0,2Zm4-18a1,1,0,1,0-1-1A1,1,0,0,0,17,16Zm4,0h8a1,1,0,0,0,0-2H21a1,1,0,0,0,0,2ZM13,30H23a1,1,0,0,0,1-1V21a1,1,0,0,0-1-1H13a1,1,0,0,0-1,1v8A1,1,0,0,0,13,30Zm1-8h8v6H14Zm-1-6a1,1,0,1,0-1-1A1,1,0,0,0,13,16Z"/></g></g></g></svg>