<?xml version="1.0" encoding="UTF-8"?>
<svg width="25px" height="23px" viewBox="0 0 25 23" version="1.1" xmlns="http://www.w3.org/2000/svg" xmlns:xlink="http://www.w3.org/1999/xlink">
    <!-- Generator: Sketch 42 (36781) - http://www.bohemiancoding.com/sketch -->
    <title>hammer</title>
    <desc>Created with Sketch.</desc>
    <defs></defs>
    <g id="Page-1" stroke="none" stroke-width="1" fill="none" fill-rule="evenodd">
        <g id="Flat---Outline" transform="translate(-450.000000, -51.000000)" fill="#000000">
            <g id="hammer" transform="translate(450.000000, 51.000000)">
                <path d="M20.98,11.8039 L19.72,10.5599 L19.72,9.0319 C19.72,8.7549 19.497,8.5319 19.22,8.5319 L17.665,8.5319 L17.053,7.9309 L17.052,7.9299 C17.051,7.9279 17.051,7.9279 17.05,7.9279 L14.973,5.8869 L16.371,4.5059 C16.507,4.3719 16.555,4.1719 16.494,3.9909 C16.464,3.9019 15.894,2.2659 14.342,1.0879 C16.182,1.4889 17.918,3.2239 18.867,4.1729 C20.432,5.7399 20.479,7.2379 20.48,7.2969 C20.482,7.5729 20.705,7.7939 20.98,7.7939 L22.535,7.7939 L23.788,9.0319 L20.98,11.8039 Z M2.702,21.7149 C2.306,22.1009 1.656,22.0849 1.29,21.7059 C1.101,21.5109 0.999,21.2559 1.001,20.9879 C1.004,20.7219 1.109,20.4759 1.293,20.2979 L15.043,7.3579 L15.991,8.2889 L2.702,21.7149 Z M24.851,8.6759 L23.091,6.9389 C22.998,6.8459 22.872,6.7939 22.74,6.7939 L21.424,6.7939 C21.298,6.1009 20.891,4.7829 19.574,3.4659 C18.195,2.0879 15.328,-0.7791 12.344,0.2009 C12.139,0.2689 12,0.4599 12,0.6759 C12,0.8919 12.139,1.0829 12.344,1.1509 C14.215,1.7669 15.127,3.3779 15.429,4.0319 L13.909,5.5329 C13.813,5.6259 13.76,5.7539 13.76,5.8889 C13.76,6.0229 13.814,6.1509 13.909,6.2439 L14.329,6.6569 L0.603,19.5749 C0.22,19.9439 0.006,20.4429 0.001,20.9779 C-0.004,21.5109 0.198,22.0169 0.571,22.4019 C0.947,22.7899 1.454,23.0039 2,23.0039 C2.521,23.0039 3.017,22.8019 3.405,22.4259 L16.705,8.9909 L17.109,9.3879 C17.203,9.4799 17.329,9.5319 17.46,9.5319 L18.72,9.5319 L18.72,10.7689 C18.72,10.9029 18.774,11.0309 18.869,11.1239 L20.629,12.8619 C20.726,12.9579 20.853,13.0059 20.98,13.0059 C21.107,13.0059 21.234,12.9579 21.331,12.8619 L24.851,9.3869 C24.946,9.2929 25,9.1649 25,9.0319 C25,8.8979 24.946,8.7699 24.851,8.6759 L24.851,8.6759 Z" id="Fill-28"></path>
            </g>
        </g>
    </g>
</svg>