<?xml version="1.0" encoding="UTF-8"?>
<svg width="25px" height="22px" viewBox="0 0 25 22" version="1.1" xmlns="http://www.w3.org/2000/svg" xmlns:xlink="http://www.w3.org/1999/xlink">
    <!-- Generator: Sketch 42 (36781) - http://www.bohemiancoding.com/sketch -->
    <title>id-badge</title>
    <desc>Created with Sketch.</desc>
    <defs></defs>
    <g id="Page-1" stroke="none" stroke-width="1" fill="none" fill-rule="evenodd">
        <g id="Flat---Outline" transform="translate(-500.000000, -102.000000)" fill="#000000">
            <g id="id-badge" transform="translate(500.000000, 102.000000)">
                <path d="M12,2.5041 C12,2.2281 12.224,2.0041 12.5,2.0041 C12.776,2.0041 13,2.2281 13,2.5041 C13,2.7801 12.776,3.0041 12.5,3.0041 C12.224,3.0041 12,2.7801 12,2.5041 L12,2.5041 Z M23.5,20.0041 L1.5,20.0041 C1.224,20.0041 1,19.7791 1,19.5041 L1,7.0041 L24,7.0041 L24,19.5041 C24,19.7791 23.776,20.0041 23.5,20.0041 L23.5,20.0041 Z M1.5,4.0041 L10,4.0041 L10,4.5041 C10,4.7801 10.224,5.0041 10.5,5.0041 L14.5,5.0041 C14.776,5.0041 15,4.7801 15,4.5041 L15,4.0041 L23.5,4.0041 C23.776,4.0041 24,4.2291 24,4.5041 L24,6.0041 L1,6.0041 L1,4.5041 C1,4.2291 1.224,4.0041 1.5,4.0041 L1.5,4.0041 Z M11,2.5041 C11,1.6771 11.673,1.0041 12.5,1.0041 C13.327,1.0041 14,1.6771 14,2.5041 L14,3.5041 L14,4.0041 L11,4.0041 L11,3.5041 L11,2.5041 Z M23.5,3.0041 L15,3.0041 L15,2.5041 C15,1.1251 13.878,0.0041 12.5,0.0041 C11.122,0.0041 10,1.1251 10,2.5041 L10,3.0041 L1.5,3.0041 C0.673,3.0041 0,3.6771 0,4.5041 L0,19.5041 C0,20.3311 0.673,21.0041 1.5,21.0041 L23.5,21.0041 C24.327,21.0041 25,20.3311 25,19.5041 L25,4.5041 C25,3.6771 24.327,3.0041 23.5,3.0041 L23.5,3.0041 Z M21,16.5041 C21,16.7801 20.776,17.0041 20.5,17.0041 L14.5,17.0041 C14.224,17.0041 14,16.7801 14,16.5041 C14,16.2281 14.224,16.0041 14.5,16.0041 L20.5,16.0041 C20.776,16.0041 21,16.2281 21,16.5041 L21,16.5041 Z M14,14.5041 C14,14.2281 14.224,14.0041 14.5,14.0041 L19.5,14.0041 C19.776,14.0041 20,14.2281 20,14.5041 C20,14.7801 19.776,15.0041 19.5,15.0041 L14.5,15.0041 C14.224,15.0041 14,14.7801 14,14.5041 L14,14.5041 Z M22,12.5041 C22,12.7801 21.776,13.0041 21.5,13.0041 L14.5,13.0041 C14.224,13.0041 14,12.7801 14,12.5041 C14,12.2281 14.224,12.0041 14.5,12.0041 L21.5,12.0041 C21.776,12.0041 22,12.2281 22,12.5041 L22,12.5041 Z M14,10.5041 C14,10.2281 14.224,10.0041 14.5,10.0041 L17.5,10.0041 C17.776,10.0041 18,10.2281 18,10.5041 C18,10.7801 17.776,11.0041 17.5,11.0041 L14.5,11.0041 C14.224,11.0041 14,10.7801 14,10.5041 L14,10.5041 Z M4.036,17.0041 C4.279,15.3101 5.74,14.0041 7.5,14.0041 C9.26,14.0041 10.721,15.3101 10.964,17.0041 L4.036,17.0041 Z M6,11.5041 C6,10.6771 6.673,10.0041 7.5,10.0041 C8.327,10.0041 9,10.6771 9,11.5041 C9,12.3311 8.327,13.0041 7.5,13.0041 C6.673,13.0041 6,12.3311 6,11.5041 L6,11.5041 Z M9.186,13.3381 C9.683,12.8811 10,12.2321 10,11.5041 C10,10.1251 8.878,9.0041 7.5,9.0041 C6.122,9.0041 5,10.1251 5,11.5041 C5,12.2321 5.317,12.8811 5.814,13.3381 C4.167,14.0071 3,15.6191 3,17.5041 C3,17.7801 3.224,18.0041 3.5,18.0041 L11.5,18.0041 C11.776,18.0041 12,17.7801 12,17.5041 C12,15.6191 10.833,14.0071 9.186,13.3381 L9.186,13.3381 Z" id="Fill-50"></path>
            </g>
        </g>
    </g>
</svg>