<svg xmlns="http://www.w3.org/2000/svg" viewBox="0 0 44 36"><defs><style>.cls-1{fill:#111216;}</style></defs><title>shop@1x</title><g id="Layer_2" data-name="Layer 2"><g id="General"><g id="Storefront_2x.png" data-name="Storefront@2x.png"><path class="cls-1" d="M43,34H42V8h1a1,1,0,0,0,0-2H42V2a2,2,0,0,0-2-2H4A2,2,0,0,0,2,2V6H1A1,1,0,0,0,1,8H2V34H1a1,1,0,0,0,0,2H43a1,1,0,0,0,0-2ZM24,34H20V24h4Zm16,0H26V23a1,1,0,0,0-1-1H19a1,1,0,0,0-1,1V34H4V12.62a4,4,0,0,0,6,0,4,4,0,0,0,6,0,4,4,0,0,0,6,0,4,4,0,0,0,6,0,4,4,0,0,0,6,0,4,4,0,0,0,6,0ZM5,10V8H9v2a2,2,0,0,1-4,0Zm6,0V8h4v2a2,2,0,0,1-4,0Zm6,0V8h4v2a2,2,0,0,1-4,0Zm6,0V8h4v2a2,2,0,0,1-4,0Zm6,0V8h4v2a2,2,0,0,1-4,0Zm6,0V8h4v2a2,2,0,0,1-4,0Zm5-4H4V2H40ZM15,22H9a1,1,0,0,0-1,1v6a1,1,0,0,0,1,1h6a1,1,0,0,0,1-1V23A1,1,0,0,0,15,22Zm-1,6H10V24h4Zm21-6H29a1,1,0,0,0-1,1v6a1,1,0,0,0,1,1h6a1,1,0,0,0,1-1V23A1,1,0,0,0,35,22Zm-1,6H30V24h4Z"/></g></g></g></svg>