<svg xmlns="http://www.w3.org/2000/svg" viewBox="0 0 44 44"><title>terminal@1x</title><g id="Layer_2" data-name="Layer 2"><g id="Electronics"><g id="Command_Line_2x.png" data-name="Command Line@2x.png"><path d="M20,25a1,1,0,0,0-.41-.79h0l-8-6h0A1,1,0,0,0,11,18a1,1,0,0,0-1,1,1,1,0,0,0,.41.79h0L17.33,25,10.4,30.2h0A1,1,0,0,0,10,31a1,1,0,0,0,1,1,1,1,0,0,0,.59-.21h0l8-6h0A1,1,0,0,0,20,25ZM40,0H4A4,4,0,0,0,0,4V40a4,4,0,0,0,4,4H40a4,4,0,0,0,4-4V4A4,4,0,0,0,40,0Zm2,40a2,2,0,0,1-2,2H4a2,2,0,0,1-2-2V4A2,2,0,0,1,4,2H40a2,2,0,0,1,2,2ZM27,32H21a1,1,0,0,0,0,2h6a1,1,0,0,0,0-2Z"/></g></g></g></svg>