<?xml version="1.0" encoding="UTF-8"?>
<svg width="25px" height="25px" viewBox="0 0 25 25" version="1.1" xmlns="http://www.w3.org/2000/svg" xmlns:xlink="http://www.w3.org/1999/xlink">
    <!-- Generator: Sketch 42 (36781) - http://www.bohemiancoding.com/sketch -->
    <title>verified</title>
    <desc>Created with Sketch.</desc>
    <defs/>
    <g id="Page-1" stroke="none" stroke-width="1" fill="none" fill-rule="evenodd" stroke-linecap="round" stroke-linejoin="round">
        <g id="Outline" transform="translate(-200.000000, -500.000000)" stroke="#000000">
            <g id="verified" transform="translate(200.000000, 500.000000)">
                <path d="M24.5,12.5 C24.5,11.408 23.624,10.523 22.536,10.504 C23.533,10.069 24.004,8.917 23.586,7.908 C23.168,6.898 22.021,6.417 21.008,6.814 C21.763,6.032 21.758,4.787 20.985,4.015 C20.213,3.242 18.968,3.236 18.185,3.991 C18.583,2.979 18.101,1.831 17.092,1.413 C16.083,0.995 14.931,1.467 14.496,2.464 C14.477,1.376 13.592,0.5 12.5,0.5 C11.408,0.5 10.523,1.376 10.504,2.464 C10.069,1.467 8.917,0.995 7.908,1.413 C6.899,1.831 6.417,2.979 6.815,3.991 C6.032,3.236 4.787,3.242 4.015,4.015 C3.242,4.787 3.237,6.032 3.992,6.814 C2.979,6.417 1.832,6.898 1.414,7.908 C0.996,8.917 1.467,10.069 2.464,10.504 C1.376,10.523 0.5,11.408 0.5,12.5 C0.5,13.592 1.376,14.477 2.464,14.496 C1.467,14.931 0.996,16.083 1.414,17.092 C1.832,18.102 2.979,18.583 3.992,18.186 C3.237,18.968 3.242,20.213 4.015,20.985 C4.787,21.758 6.032,21.764 6.815,21.009 C6.417,22.021 6.899,23.169 7.908,23.587 C8.917,24.005 10.069,23.533 10.504,22.536 C10.523,23.624 11.408,24.5 12.5,24.5 C13.592,24.5 14.477,23.624 14.496,22.536 C14.931,23.533 16.083,24.005 17.092,23.587 C18.101,23.169 18.583,22.021 18.185,21.009 C18.968,21.764 20.213,21.758 20.985,20.985 C21.758,20.213 21.763,18.968 21.008,18.186 C22.021,18.583 23.168,18.102 23.586,17.092 C24.004,16.083 23.533,14.931 22.536,14.496 C23.624,14.477 24.5,13.592 24.5,12.5 Z" id="Stroke-28"/>
                <polyline id="Stroke-30" points="17.5 8.5 10.5 16.5 7.5 13.5"/>
            </g>
        </g>
    </g>
</svg>