<svg xmlns="http://www.w3.org/2000/svg" width="8858" height="3500" viewBox="0 2679 8858 3500">
  <metadata><?xpacket begin="﻿" id="W5M0MpCehiHzreSzNTczkc9d"?>
<x:xmpmeta xmlns:x="adobe:ns:meta/" x:xmptk="Adobe XMP Core 5.6-c138 79.159824, 2016/09/14-01:09:01        ">
   <rdf:RDF xmlns:rdf="http://www.w3.org/1999/02/22-rdf-syntax-ns#">
      <rdf:Description rdf:about=""/>
   </rdf:RDF>
</x:xmpmeta>
                                                                                                    
                                                                                                    
                                                                                                    
                                                                                                    
                                                                                                    
                                                                                                    
                                                                                                    
                                                                                                    
                                                                                                    
                                                                                                    
                                                                                                    
                                                                                                    
                                                                                                    
                                                                                                    
                                                                                                    
                                                                                                    
                                                                                                    
                                                                                                    
                                                                                                    
                                                                                                    
                           
<?xpacket end="w"?></metadata>
<defs>
    <style>
      .cls-1 {
        fill: #409eff;
        fill-rule: evenodd;
      }
    </style>
  </defs>
  <path id="Elipse_1" data-name="Elipse 1" class="cls-1" d="M3086.26,5017.29q57.045,171.63,241.2,171.6h301.96q73.62,0,125.2-28.9,132.57-74.04,132.57-204.11V4462.75q0-187.845-219.11-218.57-25.8-3.6-38.66-3.61H3312.73a197.91,197.91,0,0,1-22.09,1.8q-215.43,25.32-215.43,220.38v493.13q-9.225,3.63,11.05,61.41h0Zm149.14-112.36V4511.86q0-114.15,116.86-114.14h261.59q113.16,0,113.15,114.14v398.52q0,121.38-113.15,121.36H3352.26q-116.865,0-116.86-126.81h0Zm1021.85,260.48q53.385,23.505,95.74,23.48h316.69q103.095,0,172.16-83.09,69.045-83.055,69.04-184.24V3637.46H4750.7v603.11H4374q-120.06,0-191.12,61.41-71.115,61.44-71.09,177.02v462.43q0,160.785,145.46,223.98h0Zm14.73-235.1V4502.8q0-105.09,105.76-105.08H4663.5q87.165,0,87.2,101.44v418.45q0,61.635-42.67,90.59-25.98,23.55-63.09,23.54H4359.18q-70.515,0-85.36-90.57c-1.24-2.43-1.84-6.04-1.84-10.86h0Zm878.26,94.21q25.755,66.84,93.9,115.6,68.1,48.78,139.93,48.77h322.22q123.33,0,200.69-121.02,34.95-55.965,34.98-121.02V4459.13q0-14.43-3.68-43.35-40.53-175.185-230.15-175.21L5387,4241v157l333.84-.28q24,0,42.47,19.25,18.465,19.215,18.46,44.87v64.13H5382.95q-125.58,0-190.19,88.51-57.27,77.685-57.25,205.92v113.8q0,50.6,14.73,90.32h0Zm145.45-86.71V4784.27q0-88.47,115.02-101.15H5668.6q113.145,10.845,113.17,101.15v153.54q0,93.945-133.57,93.93H5429.27q-63.09,0-90.91-14.45-42.675-21.675-42.67-79.48h0Zm1031.08,559.97V5188.89h402.54q107.055,0,186.48-88.51,60.93-66.795,60.93-175.21v-455.2q0-119.22-95.75-189.66-55.23-39.72-158.34-39.74h-303.8q-117.855,0-185.04,62.32-67.23,62.31-67.21,177.92V5497.78h160.19Zm0-578.34v-425.7q0-96.03,115.02-96.02h304.26q38.925,7.275,52.85,21.76,13.89,14.475,17.63,52.5v465.55c0,8.47-.63,14.51-1.84,18.12q-13.035,61.65-77.93,74.29c-2.48,1.21-6.19,1.8-11.14,1.8H6415.81q-25.98,0-59.35-27.18-22.275-18.12-27.85-67.03c-1.24-2.4-1.84-8.44-1.84-18.09h0Zm1034.76,269.45V4397.72h167.55V4240.57H7361.53V3637.46H7201.34V5188.89h160.19Zm808.28,308.89q123.33,0,191.49-74.06,62.565-70.455,62.6-193.28V4240.57H8263.71v690.02q0,101.175-111.33,101.15H7900.04q-115.035,0-115.04-117.41V4240.57H7624.81v717.11q0,97.545,67.41,164.38,67.395,66.855,167.09,66.83h404.4v50.58q0,88.485-79.4,101.16L3097,5341v157ZM1735.42,3984.19v204.8s15.05,168.66-144.41,168.66H519.982s-120.341,3.01-120.341-120.47-45.128-605.37,120.341-771.02,496.408-87.34,661.878-252.98S1675.25,2912,1831.7,2912s156.44,84.33,156.44,240.94,174.49,313.22,264.75,313.22h228.65c351.99,0,361.02,15.06,361.02,349.37V5393.69c0,460.8-156.44,590.31-589.67,590.31s-469.33-3.01-469.33-469.84,84.24-493.92,493.4-493.92c210.59,0,228.64,21.08,228.64,228.89s3.01,216.85-216.61,216.85V5321.41s108.31,0,108.31-84.33-108.31-84.33-108.31-84.33H2072.38c-81.23,0-132.38,72.29-132.38,361.41s3.01,325.28,324.92,325.28,409.16-162.64,409.16-409.6V3815.53c0-222.87-33.09-180.71-180.51-180.71H2276.96c-306.87,0-457.3,0-457.3-457.78,0-162.64-264.75-24.1-481.36,192.75S850.919,3424,688.459,3586.64s-132.375,493.92-132.375,493.92-18.051,108.43,228.647,108.43H1470.67c105.3,0,114.33-45.18,120.34-192.75C1669.24,3999.25,1735.42,3984.19,1735.42,3984.19Zm-367.03-530.12c122.97,0,222.65,99.8,222.65,222.91s-99.68,222.9-222.65,222.9-222.65-99.8-222.65-222.9S1245.42,3454.07,1368.39,3454.07Zm60.23,60.23a66.28,66.28,0,1,1-66.15,66.28A66.214,66.214,0,0,1,1428.62,3514.3Z"/>
</svg>
